# xmcd
#
# Track frame offsets:
#	150
#	19071
#	36757
#	53152
#	70656
#	86933
#	104902
#	122524
#	139231
#	160321
#	180832
#	198563
#
# Disc length: 2884 seconds
#
# Revision: 1
# Processed by: cddbd v1.5.2PL0 Copyright (c) Steve Scherf et al.
# Submitted via: EasyCDDAExtractor 12.0.0.1
#
DISCID=a60b420c
DTITLE=Mariusz Kalaga - Mój los
DYEAR=2000
DGENRE=Country
TTITLE0=Poczekaj serce me
TTITLE1=Ta, Ta, Ta... Ple, Ple, Ple...
TTITLE2=Żyj z nadzieja
TTITLE3=Przystanek na żadanie
TTITLE4=To do Ciebie przyszedl Blues
TTITLE5=Dla syna
TTITLE6=Wymelduje sie z tego miasta
TTITLE7=Twoje serce w potrzebie
TTITLE8=Ile dziewczat dzis spotkalem
TTITLE9=Moje drzewo i park
TTITLE10=Czasem to nowa milosc
TTITLE11=Umówmy sie, że potrafimy kochac
EXTD=
EXTT0=
EXTT1=
EXTT2=
EXTT3=
EXTT4=
EXTT5=
EXTT6=
EXTT7=
EXTT8=
EXTT9=
EXTT10=
EXTT11=
PLAYORDER=
